<svg xmlns="http://www.w3.org/2000/svg" viewBox="0 0 16.9 16.9">
  <g stroke-linecap="square">
    <path fill="#008ebf" stroke="#008ebf" stroke-width=".1" d="M1.4 4H6v9.1H1.4zm5.3 1.7h9.4v5.7H6.7z"/>
    <path fill="#40e0d0" stroke="#008ebf" stroke-width=".1" d="M10.2 8.8H6.8l1.7-3z" transform="matrix(1.01713 0 0 .55885 1.2 4.6)"/>
    <path fill="#fff" stroke="#008ebf" stroke-width=".1" d="M10.2 8.8H6.8l1.7-3z" transform="matrix(1.48531 0 0 .86257 -.5 2)"/>
    <g fill="#fff" fill-rule="evenodd" stroke-width=".6">
      <path fill="#e9e9ff" d="M3.4 7.4 5 6.8v3.9L3.4 10Z"/>
      <path fill="#353564" d="M2.5 7.3V10h1V7.4Z"/>
      <path fill="#afafde" d="m2.5 10.1 1.3.8 1.2-.2-1.6-.6z"/>
      <path fill="#4d4d9f" d="m2.5 7.3 1.3-.8 1.2.3-1.6.6Z"/>
      <path d="M3.8 6.5V11l1.2-.2v-4Z"/>
      <path fill="#48d1cc" d="m2.5 7.3 1.3-.8V11l-1.3-1z"/>
    </g>
  </g>
</svg>